<svg xmlns="http://www.w3.org/2000/svg" width="20.495" height="25.62" viewBox="0 0 20.495 25.62">
  <g id="Group_636" data-name="Group 636" transform="translate(-51.209)">
    <ellipse id="Ellipse_17" data-name="Ellipse 17" cx="5.551" cy="9.821" rx="5.551" ry="9.821" transform="translate(54.197 2.989)" fill="#fff"/>
    <path id="Path_708" data-name="Path 708" d="M71.7,12.81a19.1,19.1,0,0,0-.121-2.135h.009l-.067-.485c0-.031-.011-.061-.016-.092q-.065-.454-.152-.9c-.022-.115-.046-.23-.07-.344q-.075-.346-.163-.682c-.049-.19-.1-.378-.157-.565-.047-.158-.1-.315-.146-.469-.086-.26-.178-.515-.276-.767-.032-.082-.063-.165-.1-.246-.043-.106-.08-.216-.126-.321l-.112-.257H70.2a12.856,12.856,0,0,0-1.233-2.135h.066l-.6-.7A8.071,8.071,0,0,0,65.719.586L65.643.552a6.3,6.3,0,0,0-.6-.236c-.094-.032-.188-.061-.284-.089s-.172-.05-.259-.07c-.18-.043-.363-.076-.546-.1C63.9.05,63.845.044,63.79.038A5.743,5.743,0,0,0,63.165,0H59.749c-4.709,0-8.54,5.747-8.54,12.81s3.831,12.81,8.54,12.81h3.416a5.752,5.752,0,0,0,.626-.038l.164-.019c.184-.026.366-.058.546-.1.087-.02.173-.045.258-.07s.19-.057.285-.089a6.191,6.191,0,0,0,.6-.235l.078-.035a8.073,8.073,0,0,0,2.709-2.126l.6-.7h-.065A12.857,12.857,0,0,0,70.2,20.069h.015l.111-.257c.045-.1.082-.214.125-.32.034-.083.066-.167.1-.252.1-.25.189-.5.274-.761.052-.157.1-.316.149-.477.054-.184.107-.37.155-.558.058-.225.114-.454.164-.685q.037-.17.07-.342.086-.441.152-.895c0-.031.012-.061.016-.092l.067-.486h-.009A19.09,19.09,0,0,0,71.7,12.81Zm-.854,0a18.471,18.471,0,0,1-.125,2.135H68.167c0-.023.006-.045.008-.067s.007-.058.01-.088c.03-.287.052-.577.068-.87q.006-.105.011-.21c.014-.3.023-.6.023-.9s-.009-.6-.023-.9c0-.07-.007-.14-.011-.21-.017-.292-.038-.583-.068-.87,0-.029-.007-.058-.01-.088s-.006-.045-.008-.067h2.558A18.471,18.471,0,0,1,70.85,12.81Zm-.423,3.9a15.353,15.353,0,0,1-.781,2.5h-2.5a16.272,16.272,0,0,0,.6-1.939c.018-.073.035-.146.052-.219.047-.2.092-.408.133-.616.034-.171.066-.342.1-.516.007-.042.016-.083.023-.126h2.551c-.049.293-.105.582-.168.867Zm0-7.808.01.048q.094.428.168.867H68.054c-.007-.042-.016-.083-.023-.125-.029-.175-.062-.349-.1-.521-.04-.2-.085-.407-.131-.608-.018-.075-.035-.15-.053-.224a16.312,16.312,0,0,0-.6-1.938h2.5A15.356,15.356,0,0,1,70.427,8.905ZM69.265,5.551H66.779l0,0c-.024-.052-.048-.1-.073-.153q-.145-.3-.3-.6c-.016-.03-.032-.062-.048-.092-.117-.214-.24-.422-.365-.624l-.09-.142q-.172-.269-.354-.523H67.91A11.249,11.249,0,0,1,69.265,5.551Zm-6.1-4.7c.158,0,.315.01.471.025.047,0,.093.011.14.017q.172.021.343.054c.046.009.092.017.138.027a5.327,5.327,0,0,1,.92.3l.1.042c.138.062.276.128.412.2l.035.018a6.952,6.952,0,0,1,1.392,1.026H64.881A8.328,8.328,0,0,0,62.835.854ZM53.343,12.81c0-5.787,2.933-10.675,6.4-10.675s6.4,4.888,6.4,10.675-2.933,10.675-6.4,10.675S53.343,18.6,53.343,12.81Zm9.493,11.956a8.335,8.335,0,0,0,2.046-1.708h2.228a6.957,6.957,0,0,1-1.392,1.027l-.033.018c-.137.074-.275.141-.414.2l-.094.041a5.287,5.287,0,0,1-.921.3c-.045.01-.091.018-.137.027q-.171.033-.343.054l-.14.017c-.157.015-.313.025-.471.025ZM67.91,22.2H65.546c.122-.169.239-.344.354-.523.03-.047.061-.094.09-.142.126-.2.248-.41.365-.624.017-.03.032-.061.048-.092q.156-.291.3-.6c.024-.051.049-.1.073-.153l0,0h2.486A11.23,11.23,0,0,1,67.91,22.2Z" fill="#fff"/>
  </g>
</svg>
