<svg xmlns="http://www.w3.org/2000/svg" width="21.617" height="16.737" viewBox="0 0 21.617 16.737">
  <g id="Group_678" data-name="Group 678" transform="translate(0.35 -59.383)">
    <path id="Path_783" data-name="Path 783" d="M19.872,59.733H1.046A1.046,1.046,0,0,0,0,60.779V74.724A1.046,1.046,0,0,0,1.046,75.77H19.872a1.046,1.046,0,0,0,1.046-1.046V60.779A1.046,1.046,0,0,0,19.872,59.733Zm.349,14.991a.349.349,0,0,1-.349.349H1.046A.349.349,0,0,1,.7,74.724V60.779a.349.349,0,0,1,.349-.349H19.872a.349.349,0,0,1,.349.349Z" transform="translate(0 0)" fill="#8f9bab" stroke="#8f9bab" stroke-width="0.7"/>
    <path id="Path_784" data-name="Path 784" d="M52.179,93.99a.349.349,0,0,0-.491-.043L43.645,100.7a.7.7,0,0,1-.9,0L34.7,93.947a.349.349,0,1,0-.448.534l8.043,6.756a1.393,1.393,0,0,0,1.794,0l8.043-6.756a.349.349,0,0,0,.043-.491Z" transform="translate(-32.737 -32.738)" fill="#8f9bab" stroke="#8f9bab" stroke-width="0.7"/>
    <path id="Path_785" data-name="Path 785" d="M38.981,273.042,34.1,278.271a.349.349,0,1,0,.51.476l4.881-5.229a.349.349,0,1,0-.51-.476Z" transform="translate(-32.612 -204.482)" fill="#8f9bab" stroke="#8f9bab" stroke-width="0.7"/>
    <path id="Path_786" data-name="Path 786" d="M341.81,273.042a.349.349,0,1,0-.51.476l4.881,5.229a.349.349,0,0,0,.51-.476Z" transform="translate(-327.261 -204.482)" fill="#8f9bab" stroke="#8f9bab" stroke-width="0.7"/>
  </g>
</svg>
