<svg xmlns="http://www.w3.org/2000/svg" width="22.431" height="13.371" viewBox="0 0 22.431 13.371">
  <g id="Group_594" data-name="Group 594" transform="translate(-1 -98.502)">
    <path id="Path_503" data-name="Path 503" d="M11.216,98.725c-4.286,0-8.172,2.345-11.04,6.153a.888.888,0,0,0,0,1.06c2.868,3.813,6.754,6.158,11.04,6.158s8.172-2.345,11.04-6.153a.888.888,0,0,0,0-1.06C19.388,101.07,15.5,98.725,11.216,98.725Zm.307,11.393a4.718,4.718,0,1,1,4.4-4.4A4.721,4.721,0,0,1,11.523,110.118Zm-.142-2.175a2.54,2.54,0,1,1,2.372-2.372A2.536,2.536,0,0,1,11.381,107.943Z" transform="translate(1 -0.223)" fill="#27b7ae"/>
  </g>
</svg>
