<svg xmlns="http://www.w3.org/2000/svg" xmlns:xlink="http://www.w3.org/1999/xlink" width="20.346" height="20.397" viewBox="0 0 20.346 20.397">
  <defs>
    <clipPath id="clip-path">
      <rect id="Rectangle_43" data-name="Rectangle 43" width="20.346" height="20.397" fill="#8f9bab"/>
    </clipPath>
  </defs>
  <g id="Group_162" data-name="Group 162" transform="translate(-51.42 -88.209)">
    <g id="Group_161" data-name="Group 161" transform="translate(-48.789 88.209)">
      <g id="Group_160" data-name="Group 160" transform="translate(100.209 0)" clip-path="url(#clip-path)">
        <path id="Path_118" data-name="Path 118" d="M-28.688,96.881l-1.429-.242a8.077,8.077,0,0,0-.574-1.386l.842-1.178a1.254,1.254,0,0,0-.136-1.62l-1.267-1.267a1.248,1.248,0,0,0-.889-.37,1.235,1.235,0,0,0-.727.234l-1.182.842a7.979,7.979,0,0,0-1.437-.591l-.238-1.412a1.256,1.256,0,0,0-1.242-1.05h-1.79A1.256,1.256,0,0,0-40,89.89l-.246,1.446a7.861,7.861,0,0,0-1.382.583l-1.169-.842a1.249,1.249,0,0,0-.731-.234,1.24,1.24,0,0,0-.889.37l-1.271,1.267a1.258,1.258,0,0,0-.136,1.62l.85,1.195a7.861,7.861,0,0,0-.566,1.39l-1.412.238A1.256,1.256,0,0,0-48,98.165v1.79a1.256,1.256,0,0,0,1.05,1.242l1.446.247a7.873,7.873,0,0,0,.583,1.382l-.838,1.165a1.254,1.254,0,0,0,.136,1.62l1.267,1.267a1.248,1.248,0,0,0,.889.37,1.236,1.236,0,0,0,.727-.234l1.195-.85a8.042,8.042,0,0,0,1.344.553l.238,1.429a1.256,1.256,0,0,0,1.242,1.05h1.794a1.256,1.256,0,0,0,1.242-1.05l.242-1.429a8.054,8.054,0,0,0,1.386-.574l1.178.842a1.249,1.249,0,0,0,.731.234,1.249,1.249,0,0,0,.889-.37l1.267-1.267a1.259,1.259,0,0,0,.136-1.62l-.842-1.182a7.987,7.987,0,0,0,.574-1.386l1.429-.238a1.256,1.256,0,0,0,1.05-1.242v-1.79a1.241,1.241,0,0,0-1.042-1.242Zm-.1,3.032a.11.11,0,0,1-.093.11l-1.786.3a.571.571,0,0,0-.459.421,6.811,6.811,0,0,1-.74,1.782.575.575,0,0,0,.025.625l1.05,1.48a.116.116,0,0,1-.013.145l-1.267,1.267a.108.108,0,0,1-.081.034.105.105,0,0,1-.064-.021L-33.688,105a.575.575,0,0,0-.625-.025,6.809,6.809,0,0,1-1.782.74.564.564,0,0,0-.421.459l-.3,1.786a.11.11,0,0,1-.11.093h-1.79a.11.11,0,0,1-.111-.093l-.3-1.786a.571.571,0,0,0-.421-.459A7.07,7.07,0,0,1-41.29,105a.589.589,0,0,0-.289-.076.56.56,0,0,0-.332.106L-43.4,106.09a.125.125,0,0,1-.064.021.114.114,0,0,1-.081-.034l-1.267-1.267a.115.115,0,0,1-.013-.144l1.046-1.467a.582.582,0,0,0,.026-.629,6.735,6.735,0,0,1-.748-1.777.582.582,0,0,0-.459-.421l-1.8-.306a.11.11,0,0,1-.093-.11v-1.79a.11.11,0,0,1,.093-.111l1.773-.3a.575.575,0,0,0,.464-.425,6.8,6.8,0,0,1,.727-1.786.568.568,0,0,0-.03-.621l-1.059-1.488a.115.115,0,0,1,.013-.144l1.267-1.267a.108.108,0,0,1,.081-.034.105.105,0,0,1,.064.021l1.467,1.046a.582.582,0,0,0,.629.026,6.745,6.745,0,0,1,1.777-.748.582.582,0,0,0,.421-.459l.306-1.8a.11.11,0,0,1,.11-.094h1.79a.11.11,0,0,1,.11.094l.3,1.773a.575.575,0,0,0,.425.463,6.9,6.9,0,0,1,1.824.748.575.575,0,0,0,.625-.026l1.467-1.054a.126.126,0,0,1,.064-.021.114.114,0,0,1,.081.034l1.267,1.267a.116.116,0,0,1,.013.145l-1.05,1.475a.575.575,0,0,0-.026.625,6.808,6.808,0,0,1,.74,1.782.564.564,0,0,0,.459.421l1.786.3a.11.11,0,0,1,.094.111v1.79Zm0,0" transform="translate(48 -88.848)" fill="#8f9bab"/>
      </g>
    </g>
    <path id="Path_119" data-name="Path 119" d="M65.1,197.641a4.222,4.222,0,1,0,4.222,4.222,4.225,4.225,0,0,0-4.222-4.222Zm0,7.341a3.119,3.119,0,1,1,3.118-3.118,3.121,3.121,0,0,1-3.118,3.118Zm0,0" transform="translate(-3.459 -103.091)" fill="#8f9bab"/>
  </g>
</svg>
