<svg id="Group_1" data-name="Group 1" xmlns="http://www.w3.org/2000/svg" width="20.605" height="24.562" viewBox="0 0 20.605 24.562">
  <path id="Path_1" data-name="Path 1" d="M229.031,51.652l-.717.06.339-1.041.746-.064m1.058-.41-.416-1.1.782.046.452,1.051m-1.729.024-.785.024.432-1.1.75-.044m-3.035,2.236-.384,1.1-.782.12.357-1.1m1.5,1.343-.261.937-.578-.627.262-1.041m8.958,2.286,4.367,13.7s-1.909-.581-2.848-.9a5.422,5.422,0,0,0-1.026-3.423,4.193,4.193,0,0,0-2.68-1.361,4.135,4.135,0,0,0-.816-2.758,3.7,3.7,0,0,0-2.68-1.341V57a5.312,5.312,0,0,1,2.409.9l-1.553-5.831.785.146,1.347,4.838.348-.028-.792-2.819.625-.661,1.142,3.869.421.05-1.362-4.536.794.124,1.513,4.95.414-.034L235.357,55l.619-.641Z" transform="translate(-219.737 -43.501)" fill="#a2b1c4" fill-rule="evenodd"/>
  <path id="Path_9" data-name="Path 9" d="M229.031,51.652l-.717.06.339-1.041.746-.064m1.058-.41-.416-1.1.782.046.452,1.051m-1.729.024-.785.024.432-1.1.75-.044m-3.035,2.236-.384,1.1-.782.12.357-1.1m1.5,1.343-.261.937-.578-.627.262-1.041m8.958,2.286,4.367,13.7s-1.909-.581-2.848-.9a5.422,5.422,0,0,0-1.026-3.423,4.193,4.193,0,0,0-2.68-1.361,4.135,4.135,0,0,0-.816-2.758,3.7,3.7,0,0,0-2.68-1.341V57a5.312,5.312,0,0,1,2.409.9l-1.553-5.831.785.146,1.347,4.838.348-.028-.792-2.819.625-.661,1.142,3.869.421.05-1.362-4.536.794.124,1.513,4.95.414-.034L235.357,55l.619-.641Z" transform="translate(-219.737 -43.501)" fill="#a2b1c4" fill-rule="evenodd"/>
  <path id="Path_2" data-name="Path 2" d="M207.853,30.522l.316,1-.612.707-.294-1m.148-2.188.362.965-.619.809-.335-1.021.589-.773m-.425-1.419.282.977-.553.751-.3-1.007m.12-2.226.309,1.081-.582.641-.3-.981m.443,2.278.336,1.035-.816-.06-.378-1.067m.576-4.36.282,1.013-.564.731-.325-1.031m.448,2.306.369,1.033-.849-.08-.414-1.081m-.31,16.084a3.033,3.033,0,0,1,2.093.927,3.665,3.665,0,0,1-2.434.985,17.149,17.149,0,0,1-3.358.11,4.368,4.368,0,0,1-3.082-1.1c.321-.771,1.817-.931,2.345-.947a4.23,4.23,0,0,1,1.528.3,5.146,5.146,0,0,1-.25-1.385,9.649,9.649,0,0,1,.095-1.613,5.054,5.054,0,0,1,.714-1.377,5.24,5.24,0,0,1,.669,1.135,4.069,4.069,0,0,1,.214,1.561,4.8,4.8,0,0,1-.334,1.69,10.579,10.579,0,0,1,1.8-.284m.894-20.4.3,1.015-.564.731-.325-1.033m.446,2.294.357,1.021-.8-.068-.41-1.061m.737,3.571.3,1.029-.575.713-.344-.985m.428-8.7.307,1-.58.765-.3-.991m.43,2.214.369,1.057-.851-.136-.414-1.009m.767,3.577.3.981-.553.7-.316-.961m.266-5.617.309,1.041-.771-.14-.421-1.007m.748,3.539.327,1-.589.741-.344-.967m.253-5.709.375,1.041-.771-.032-.459-1.087m.769,3.573.285.965-.571.781-.318-.987m.225,2.188.446,1.113-.776-.052-.416-1.1m.682-4.374.316.987-.61.8L203,24.6m.171-2.208.289,1.089-.592.709-.289-1m.542,3.189-1.458.02s.139-1.2.732-1.2.728,1.177.728,1.177m-.73-5.251.542.777-.542.795-.562-.785m-.177.44.607.793-.357,1.077-.589-.785m.814,11.248s-.032.306-.032,1.251a3.454,3.454,0,0,0-2.43,1.029,4.164,4.164,0,0,0-1.023,2.074v.965a4.5,4.5,0,0,0-.844.156,3.882,3.882,0,0,0-1.793,1.1,4.308,4.308,0,0,0-.933,1.816c-.089.42-.166,1.657-.166,1.657l-2.762.921H192.1l4.349-13.718.571.753-.914,2.943.357-.01,1.576-5.039.739-.03-1.338,4.624.434.008.143-.406,1-3.589.535.635-.717,2.891.419-.12,1.133-4.158.148-.633.76-.1s-1.3,4.99-1.561,5.809a3.21,3.21,0,0,1,2.4-.817m-.944-10.876.651.781-.357,1.053-.6-.769m.616-3.163-.485,1.153h-.732l.378-1.041m.105,3.427.6.793-.291,1.021-.625-.757m.591-3.107-.45,1.077-.767.12.439-1.141m.043,3.5.578.715-.3,1.029-.607-.749m.63-3.147-.425,1.145-.821.07.423-1.121" transform="translate(-192.1 -21.13)" fill="#a2b1c4" fill-rule="evenodd"/>
  <path id="Path_3" data-name="Path 3" d="M220.522,30.862l.6.761-.316,1-.583-.8m.055-7.373.582.7-.307,1.031-.594-.665m.9,3.213-.357,1.135-.892.1.384-1.115m-.175-2.965.592.7-.353,1.075-.546-.741m.882,3.287-.435,1.161-.778.072.387-1.1m-.2-3.021.56.709-.3,1.015-.575-.741m-.129.374.607.735-.325,1.061-.621-.713m-.107.384.582.781-.286,1.047-.616-.761m-.105.52.553.693-.268.981-.589-.665m-.123.412.553.727-.316,1.021-.566-.749" transform="translate(-212.795 -23.785)" fill="#a2b1c4" fill-rule="evenodd"/>
</svg>
