<svg xmlns="http://www.w3.org/2000/svg" width="17.547" height="22.514" viewBox="0 0 17.547 22.514">
  <g id="Group_159" data-name="Group 159" transform="translate(-62.457 0)">
    <path id="Path_116" data-name="Path 116" d="M80.435,21.238l-2.9-6.139a.543.543,0,0,0-.279-.268l-1.444-.643L78.312,10l.017-.031a6.852,6.852,0,0,0-1.29-7.994A6.849,6.849,0,0,0,66.133,9.966L66.15,10l2.5,4.193-1.452.646a.543.543,0,0,0-.27.264l-2.9,6.139a.543.543,0,0,0,.712.728l3.636-1.619,3.636,1.619a.543.543,0,0,0,.442,0l3.636-1.619,3.636,1.619a.543.543,0,0,0,.712-.728ZM66.47,6.813a5.79,5.79,0,0,1,5.679-5.726A5.764,5.764,0,0,1,77.37,9.455L72.7,17.287a.543.543,0,0,1-.933,0L67.092,9.455A5.7,5.7,0,0,1,66.47,6.813Zm9.839,12.445a.543.543,0,0,0-.442,0l-3.636,1.619L68.6,19.257a.543.543,0,0,0-.442,0l-2.519,1.121,2.19-4.633,1.387-.617,1.62,2.715a1.63,1.63,0,0,0,2.8,0l1.62-2.714,1.387.617,2.19,4.633Z" transform="translate(-1 0)" fill="#8f9bab"/>
    <path id="Subtraction_3" data-name="Subtraction 3" d="M-398.482-5278.66a.546.546,0,0,1-.389-.164.547.547,0,0,1-.1-.612l2.9-6.14a.539.539,0,0,1,.269-.263l1.453-.646h1.24c.518.9,1.78,2.982,2.333,2.982.613,0,1.492-1.506,2.267-2.834l.087-.148h1.232l1.444.643a.54.54,0,0,1,.279.268l2.9,6.138a.544.544,0,0,1-.1.612.537.537,0,0,1-.389.163.541.541,0,0,1-.22-.046l-3.635-1.619-3.636,1.619a.536.536,0,0,1-.221.047.536.536,0,0,1-.221-.047l-3.635-1.619-3.635,1.619A.549.549,0,0,1-398.482-5278.66Zm3.856-2.8a.536.536,0,0,1,.221.047l3.636,1.619,3.635-1.619a.536.536,0,0,1,.221-.047.536.536,0,0,1,.221.047l2.519,1.123-2.191-4.633-1.387-.617-1.493,2.714a1.829,1.829,0,0,1-1.525.795,1.618,1.618,0,0,1-1.4-.795l-1.619-2.715-1.387.618-2.19,4.633,2.518-1.123A.536.536,0,0,1-394.626-5281.464Z" transform="translate(462 5300.674)" fill="#8f9bab" stroke="rgba(0,0,0,0)" stroke-miterlimit="10" stroke-width="1"/>
    <path id="Path_117" data-name="Path 117" d="M203.3,104.087a2.479,2.479,0,1,0-2.479,2.479A2.482,2.482,0,0,0,203.3,104.087Zm-3.872,0a1.393,1.393,0,1,1,1.393,1.393A1.394,1.394,0,0,1,199.431,104.087Z" transform="translate(-129.609 -97.239)" fill="#8f9bab"/>
  </g>
</svg>
