<svg xmlns="http://www.w3.org/2000/svg" width="358.886" height="427.797" viewBox="0 0 358.886 427.797">
  <g id="Group_153" data-name="Group 153" opacity="0.1">
    <path id="Path_1" data-name="Path 1" d="M283.052,93.553,270.558,94.6l5.905-18.13,12.991-1.116m18.431-7.147L300.644,49.1l13.613.8,7.864,18.3M292,68.625l-13.675.418,7.521-19.176L298.9,49.1M246.035,88.045l-6.682,19.176-13.613,2.092,6.216-19.106M258.033,113.6l-4.538,16.317-10.07-10.913,4.569-18.13m156.024,39.816,76.054,238.688s-33.256-10.111-49.6-15.62c-.373-18.548-2.176-38.631-17.872-59.62-15.758-20.919-46.683-23.708-46.683-23.708a72.02,72.02,0,0,0-14.2-48.044c-17.312-22.941-46.683-23.36-46.683-23.36V186.713c20.606.7,41.958,15.689,41.958,15.689L319.945,100.84l13.676,2.545,23.466,84.269,6.06-.488-13.8-49.09,10.878-11.506,19.892,67.395,7.335.872-23.714-79,13.831,2.162,26.356,86.222,7.211-.593-17.9-51.81,10.785-11.157Z" transform="translate(-121.185 48.418)" fill="#fff" fill-rule="evenodd"/>
    <path id="Path_9" data-name="Path 9" d="M283.052,93.553,270.558,94.6l5.905-18.13,12.991-1.116m18.431-7.147L300.644,49.1l13.613.8,7.864,18.3M292,68.625l-13.675.418,7.521-19.176L298.9,49.1M246.035,88.045l-6.682,19.176-13.613,2.092,6.216-19.106M258.033,113.6l-4.538,16.317-10.07-10.913,4.569-18.13m156.024,39.816,76.054,238.688s-33.256-10.111-49.6-15.62c-.373-18.548-2.176-38.631-17.872-59.62-15.758-20.919-46.683-23.708-46.683-23.708a72.02,72.02,0,0,0-14.2-48.044c-17.312-22.941-46.683-23.36-46.683-23.36V186.713c20.606.7,41.958,15.689,41.958,15.689L319.945,100.84l13.676,2.545,23.466,84.269,6.06-.488-13.8-49.09,10.878-11.506,19.892,67.395,7.335.872-23.714-79,13.831,2.162,26.356,86.222,7.211-.593-17.9-51.81,10.785-11.157Z" transform="translate(-121.185 48.418)" fill="#fff" fill-rule="evenodd"/>
    <path id="Path_2" data-name="Path 2" d="M466.479,184.718l5.5,17.433-10.66,12.307-5.128-17.5m2.58-38.108,6.31,16.805-10.785,14.086-5.843-17.781L458.708,158.5m-7.4-24.72,4.911,17.014-9.635,13.074L441.3,146.331m2.083-38.77,5.377,18.827L438.63,137.545l-5.284-17.084m7.708,39.677,5.844,18.025-14.2-1.046L426.1,158.534M436.144,82.6l4.91,17.642-9.821,12.726L425.576,95.01m7.8,40.165,6.434,17.991-14.794-1.395-7.211-18.827M412.4,413.086c13.458.139,29.309,7.426,36.458,16.143-11.655,14.295-33.163,15.864-42.394,17.154a298.694,298.694,0,0,1-58.493,1.918c-26.729-1.743-43.885-8.228-53.676-19.176,5.595-13.423,31.64-16.212,40.84-16.491,9.231-.279,20.824,2.789,26.6,5.23-1.554-4.637-4.258-15.132-4.351-24.127a168.094,168.094,0,0,1,1.647-28.1c1.243-8.158,12.432-23.987,12.432-23.987,2.021,2.092,9.013,12.9,11.655,19.769,2.611,6.834,3.512,12.552,3.73,27.2.311,14.713-5.812,29.426-5.812,29.426a184.25,184.25,0,0,1,31.391-4.951M428,57.7l5.284,17.677-9.822,12.726-5.657-17.99m7.77,39.956,6.216,17.781-13.987-1.185-7.148-18.479m12.836,62.2,5.284,17.921L418.77,200.721l-6-17.154m7.459-151.49,5.346,17.433-10.1,13.319-5.159-17.258m7.49,38.561,6.434,18.409-14.825-2.371L402.2,82.6m13.364,62.3,5.222,17.084-9.635,12.133-5.5-16.735m4.631-97.832,5.377,18.13-13.427-2.441L394.9,57.7m13.023,61.642,5.688,17.5-10.257,12.9-6-16.84m4.413-99.436L408.3,51.6l-13.427-.558-7.988-18.932m13.4,62.235,4.972,16.805-9.946,13.6-5.532-17.189m3.916,38.108,7.77,19.385-13.52-.907L380.7,144.972m11.873-76.181,5.5,17.189L387.441,99.926,382,81.621m2.983-38.456,5.035,18.967L379.7,74.474l-5.035-17.433m9.448,55.54-25.393.349s2.424-20.849,12.743-20.849c10.257,0,12.681,20.5,12.681,20.5M371.434,21.13l9.448,13.528L371.434,48.5l-9.79-13.667m-3.077,7.67,10.567,13.807-6.216,18.758L352.662,61.4m14.173,195.908s-.559,5.334-.559,21.791c-21.01.453-29.527,7.775-42.332,17.921-12.836,10.111-17.809,36.12-17.809,36.12v16.8s-.621-.349-14.7,2.72c-14.111,3.033-23.311,11.994-31.236,19.106-7.863,7.078-14.67,24.336-16.255,31.623-1.554,7.322-2.89,28.868-2.89,28.868L192.939,448.3H192.1l75.743-238.932,9.946,13.109-15.913,51.252,6.216-.174L295.536,185.8l12.867-.523-23.31,80.539,7.552.139,2.487-7.078,17.343-62.514,9.324,11.052L309.3,257.761l7.3-2.092,19.736-72.415,2.58-11.017,13.24-1.743s-22.689,86.919-27.2,101.179c12.339-11.436,22.253-11.436,25.859-13.179,3.574-1.743,15.913-1.046,15.913-1.046M350.3,68.024l11.344,13.6L355.428,99.96,345.016,86.572m10.723-55.087-8.454,20.082H334.542l6.589-18.13m1.834,59.689,10.443,13.807-5.066,17.781-10.878-13.179m10.288-54.111-7.833,18.758-13.365,2.092L334.2,58.4m.745,60.945,10.07,12.447-5.19,17.921-10.568-13.04m10.971-54.808-7.4,19.943-14.3,1.22L325.9,83.5" transform="translate(-192.1 -21.13)" fill="#fff" fill-rule="evenodd"/>
    <path id="Path_3" data-name="Path 3" d="M273.576,136.124l10.474,13.249-5.5,17.433-10.163-13.946M269.35,24.45l10.132,12.2-5.346,17.956-10.35-11.575M279.42,98.992,273.2,118.761l-15.54,1.674,6.682-19.42M261.3,49.379l10.319,12.133-6.154,18.723-9.511-12.9m15.354,57.249-7.584,20.222-13.551,1.255,6.744-19.106m-3.543-52.612,9.76,12.342-5.284,17.677-10.008-12.9m-2.238,6.52,10.568,12.8-5.657,18.479L239.7,116.843m-1.865,6.694,10.132,13.6-4.973,18.235L232.271,142.12m-1.833,9.065,9.635,12.063-4.662,17.084-10.257-11.575m-2.145,7.182,9.635,12.656-5.5,17.781-9.853-13.04" transform="translate(-138.998 -12.875)" fill="#fff" fill-rule="evenodd"/>
  </g>
</svg>
