<svg xmlns="http://www.w3.org/2000/svg" width="18.843" height="18.71" viewBox="0 0 18.843 18.71">
  <g id="Group_670" data-name="Group 670" transform="translate(78.7 -88)">
    <path id="Path_115" data-name="Path 115" d="M-29.746,96.186h-.589V94.432a1.752,1.752,0,0,0-1.178-1.646V89.754A1.762,1.762,0,0,0-33.279,88H-45.056a1.762,1.762,0,0,0-1.767,1.754v3.031A1.752,1.752,0,0,0-48,94.432v10.524a1.762,1.762,0,0,0,1.767,1.754H-32.1a1.762,1.762,0,0,0,1.767-1.754V103.2h.589a.586.586,0,0,0,.589-.585V96.77a.586.586,0,0,0-.589-.585Zm-3.533-7.016a.587.587,0,0,1,.589.585v.585a1.175,1.175,0,0,1-1.178-1.169Zm-12.366.585a.587.587,0,0,1,.589-.585h.589a1.175,1.175,0,0,1-1.178,1.169Zm2.355-.585h8.244a2.349,2.349,0,0,0,2.355,2.339v1.169H-45.645V91.508a2.349,2.349,0,0,0,2.355-2.339Zm11.777,15.787a.587.587,0,0,1-.589.585H-46.233a.587.587,0,0,1-.589-.585V94.432a.587.587,0,0,1,.589-.585H-32.1a.587.587,0,0,1,.589.585v1.754h-2.355A3.525,3.525,0,0,0-37.4,99.694a3.525,3.525,0,0,0,3.533,3.508h2.355Zm1.178-2.923h-3.533a2.349,2.349,0,0,1-2.355-2.339,2.349,2.349,0,0,1,2.355-2.339h3.533Zm0,0" transform="translate(-30.7 0)" fill="#8f9bab"/>
  </g>
</svg>
