<svg xmlns="http://www.w3.org/2000/svg" width="41.539" height="48.749" viewBox="0 0 41.539 48.749">
  <g id="Group_716" data-name="Group 716" transform="translate(-169 -452.633)">
    <path id="Path_692" data-name="Path 692" d="M560.192,525.014c0-.008,0-.017,0-.025a43.551,43.551,0,0,0-5.1-18.4,27.156,27.156,0,0,1-1.188-2.647c-.837-2.473,1.427-4.126,1.54-4.207a1.007,1.007,0,0,0,.133-.113,6.248,6.248,0,0,0,2.733-5.3c0-4.909-8.728-8.338-21.225-8.338-12.95,0-17.618,1.955-17.81,2.038a1,1,0,0,0-.6.991,17.665,17.665,0,0,0,7.433,13.426,1,1,0,0,0,.531.152h5.051c.811.364,4.526,2.249,4.763,6.326a1,1,0,0,0,.845.932,2.26,2.26,0,0,0,.35.026,3.941,3.941,0,0,0,2.883-1.43c1.977,1.811,2.154,3.77,2.587,8.535l.042.461a8.946,8.946,0,0,0,3.214,5.825c1.569,1.554,2.064,2.175,1.127,3.825a17.467,17.467,0,0,0-.906,1.844,4.179,4.179,0,0,0,3.815,5.8,4.181,4.181,0,0,0,2.122-.587,31.239,31.239,0,0,0,6.442-5.027,4.309,4.309,0,0,0,1.237-3.034Q560.209,525.542,560.192,525.014ZM552,504.579a27.691,27.691,0,0,0,1.283,2.879,42.2,42.2,0,0,1,4.874,16.941,6.708,6.708,0,0,1-1.712.453.333.333,0,0,1-.307-.119,73.5,73.5,0,0,1-8.686-15.387c-1.868-4.772-.435-6.633.045-7.09a25.741,25.741,0,0,0,4.439-.907A5.2,5.2,0,0,0,552,504.579Zm-31.262-14.946c1.668-.5,6.566-1.647,16.341-1.647,13.258,0,19.221,3.7,19.221,6.334,0,3.277-3.1,5.279-9.23,5.981a1,1,0,0,0-.192.022,50.289,50.289,0,0,1-5.4.261H526.948A16.025,16.025,0,0,1,520.743,489.633Zm18.641,17.006a2.827,2.827,0,0,1-1.066,1.048,8.93,8.93,0,0,0-2.986-5.1h3.388a3.579,3.579,0,0,1,1.383,2.348,2.165,2.165,0,0,1-.566,1.515A1.014,1.014,0,0,0,539.384,506.638Zm12.131,25.776a2.1,2.1,0,0,1-2.5-.231,2.12,2.12,0,0,1-.568-2.477,15.376,15.376,0,0,1,.8-1.63c1.74-3.068.039-4.752-1.462-6.238-1.194-1.182-2.429-2.405-2.627-4.583l-.042-.459c-.47-5.174-.693-7.629-3.415-10a4.024,4.024,0,0,0,.41-1.9,4.515,4.515,0,0,0-.759-2.306h.134q1.87,0,3.533-.1c-.612,1.489-.87,3.9.574,7.593a75.97,75.97,0,0,0,8.979,15.9,2.347,2.347,0,0,0,1.837.884,2.437,2.437,0,0,0,.3-.019,8.95,8.95,0,0,0,1.456-.314,2.323,2.323,0,0,1-.625,1.19A29.66,29.66,0,0,1,551.515,532.415Z" transform="translate(-349.67 -33.348)" fill="#22a99f"/>
    <g id="Layer_2" data-name="Layer 2" transform="translate(-829.334 -1305.942)">
      <g id="Group_625" data-name="Group 625" transform="translate(1000.671 1787.854)">
        <g id="Group_624" data-name="Group 624" transform="translate(0 0)">
          <rect id="Rectangle_186" data-name="Rectangle 186" width="2.048" height="16.765" transform="translate(3.358)" fill="#22a99f" stroke="rgba(0,0,0,0)" stroke-width="1"/>
          <rect id="Rectangle_187" data-name="Rectangle 187" width="2.048" height="16.765" transform="translate(7.424)" fill="#22a99f" stroke="rgba(0,0,0,0)" stroke-width="1"/>
          <rect id="Rectangle_188" data-name="Rectangle 188" width="2.048" height="16.765" transform="translate(12.6)" fill="#22a99f" stroke="rgba(0,0,0,0)" stroke-width="1"/>
          <rect id="Rectangle_189" data-name="Rectangle 189" width="2.048" height="16.765" transform="translate(0)" fill="#22a99f" stroke="rgba(0,0,0,0)" stroke-width="1"/>
          <rect id="Rectangle_190" data-name="Rectangle 190" width="2.048" height="16.765" transform="translate(16.025)" fill="#22a99f" stroke="rgba(0,0,0,0)" stroke-width="1"/>
        </g>
      </g>
    </g>
  </g>
</svg>
