<svg xmlns="http://www.w3.org/2000/svg" width="25.122" height="25.122" viewBox="0 0 25.122 25.122">
  <g id="Group_608" data-name="Group 608" transform="translate(0 0)">
    <path id="Union_18" data-name="Union 18" d="M21.328,25.011l-3.1-2.539h-6.94a2.063,2.063,0,0,1-2.06-2.06v-4.3a8.1,8.1,0,0,1-6.007-1.557L1.131,15.1a.491.491,0,0,1-.571-.678l.821-1.8a8.1,8.1,0,0,1-.294-8.579.491.491,0,1,1,.85.492,7.116,7.116,0,0,0,.4,7.746.49.49,0,0,1,.049.493l-.51,1.121,1.3-.341a.489.489,0,0,1,.451.087A7.04,7.04,0,0,0,8.1,15.213,7.116,7.116,0,1,0,4.542,1.931a.491.491,0,1,1-.49-.85A8.1,8.1,0,0,1,16.194,8.1c0,.248-.012.493-.034.735h6.9a2.063,2.063,0,0,1,2.061,2.06v9.519a2.063,2.063,0,0,1-2.061,2.06h-.932v2.16a.49.49,0,0,1-.49.49A.487.487,0,0,1,21.328,25.011Zm-11.122-9.1v4.5a1.08,1.08,0,0,0,1.078,1.079h6.926c.263,0,.38,0,.513.122L21.148,23.6V21.982a.49.49,0,0,1,.49-.49h1.422a1.081,1.081,0,0,0,1.08-1.079V10.893a1.081,1.081,0,0,0-1.08-1.079H16.01A8.127,8.127,0,0,1,10.206,15.915Zm.291-3.972A5.614,5.614,0,0,1,8.069,9.31,5.614,5.614,0,0,1,5.64,11.943a.49.49,0,1,1-.472-.86A4.644,4.644,0,0,0,7.526,7.707H5.805a.491.491,0,0,1,0-.982H7.578V4.681a.49.49,0,1,1,.981,0V6.725H10.79a.491.491,0,0,1,0,.982H8.612a4.643,4.643,0,0,0,2.357,3.377.491.491,0,0,1-.237.921A.48.48,0,0,1,10.5,11.943Z" transform="translate(0 0)" fill="#8f9bab"/>
    <path id="Union_29" data-name="Union 29" d="M14.393,14.653l-.742-1.691H10.87l-.742,1.691a.49.49,0,1,1-.9-.394l.589-1.344a.49.49,0,0,1,.209-.934h.2l1.583-3.606a.49.49,0,0,1,.9,0l1.583,3.606h.2a.49.49,0,0,1,.209.934l.59,1.344a.492.492,0,0,1-.252.647.5.5,0,0,1-.2.042A.492.492,0,0,1,14.393,14.653ZM11.3,11.981h1.92l-.96-2.188ZM5.584,7.754A5.627,5.627,0,0,1,3.155,5.119,5.616,5.616,0,0,1,.727,7.754a.491.491,0,0,1-.472-.861A4.639,4.639,0,0,0,2.612,3.516H.893a.49.49,0,1,1,0-.981H2.665V.49a.49.49,0,0,1,.981,0V2.536H5.877a.49.49,0,0,1,0,.981H3.7A4.641,4.641,0,0,0,6.055,6.893a.491.491,0,0,1-.236.921A.5.5,0,0,1,5.584,7.754Z" transform="translate(4.912 4.19)" fill="#8f9bab"/>
  </g>
</svg>
