<svg xmlns="http://www.w3.org/2000/svg" width="194.5" height="126.144" viewBox="0 0 194.5 126.144">
  <g id="Group_3" data-name="Group 3" transform="translate(-90 -165)">
    <g id="_125" data-name="125" transform="translate(52.649 143.87)">
      <g id="Group_1" data-name="Group 1" transform="translate(94.351 21.13)">
        <path id="Path_1" data-name="Path 1" d="M238.8,58.133l-2.848.213,1.346-3.684,2.961-.227m4.2-1.452L242.813,49.1l3.1.163,1.792,3.719m-6.865.085-3.117.085,1.714-3.9,2.975-.156m-12.051,7.913-1.523,3.9-3.1.425,1.417-3.882m5.944,4.754-1.034,3.315-2.3-2.217,1.041-3.684m35.564,8.09,17.335,48.5s-7.58-2.054-11.307-3.174c-.085-3.769-.5-7.849-4.073-12.114S257.691,96.1,257.691,96.1a13.432,13.432,0,0,0-3.238-9.762c-3.946-4.662-10.641-4.747-10.641-4.747V77.062c4.7.142,9.564,3.188,9.564,3.188l-6.163-20.637,3.117.517,5.349,17.123,1.381-.1-3.145-9.975,2.48-2.338,4.534,13.694,1.672.177-5.405-16.053,3.153.439,6.008,17.52L268,80.5l-4.081-10.527,2.458-2.267Z" transform="translate(-201.908 -29.285)" fill="#088880" fill-rule="evenodd"/>
        <path id="Path_2" data-name="Path 2" d="M254.641,54.37l1.254,3.542-2.43,2.5L252.3,56.856m.588-7.743,1.438,3.415-2.458,2.862-1.332-3.613,2.338-2.735m-1.686-5.023,1.119,3.457-2.2,2.657-1.2-3.563m.475-7.878,1.226,3.826-2.31,2.267-1.2-3.471m1.757,8.062,1.332,3.663-3.238-.213-1.5-3.776m2.288-15.43,1.119,3.585-2.239,2.586-1.289-3.648M247.1,44.3l1.466,3.656-3.372-.283-1.644-3.826m-1.233,56.923c3.068.028,6.681,1.509,8.31,3.28-2.657,2.9-7.559,3.223-9.663,3.486a76.3,76.3,0,0,1-13.333.39c-6.093-.354-10-1.672-12.235-3.9,1.275-2.727,7.212-3.294,9.309-3.351a18.582,18.582,0,0,1,6.064,1.063,16.469,16.469,0,0,1-.992-4.9,30.5,30.5,0,0,1,.375-5.71c.283-1.658,2.834-4.874,2.834-4.874a18.256,18.256,0,0,1,2.657,4.017c.6,1.389.8,2.55.85,5.526a15.428,15.428,0,0,1-1.325,5.979,46.691,46.691,0,0,1,7.155-1.006m3.549-72.211,1.2,3.592-2.239,2.586-1.289-3.656m1.771,8.119,1.417,3.613-3.188-.241-1.629-3.755m2.926,12.639,1.2,3.641-2.281,2.522L242.4,54.136m1.7-30.782,1.218,3.542-2.3,2.706L241.839,26.1m1.707,7.835,1.466,3.741-3.379-.482L239.99,33.62m3.046,12.66,1.19,3.471-2.2,2.465-1.254-3.4m1.056-19.879,1.226,3.684-3.06-.5-1.672-3.563m2.968,12.525,1.3,3.556-2.338,2.621-1.367-3.422m1.006-20.2,1.488,3.684-3.06-.113L236.5,23.362m3.053,12.646,1.133,3.415-2.267,2.763-1.261-3.493m.893,7.743,1.771,3.939-3.082-.184-1.651-3.9m2.706-15.479,1.254,3.493-2.423,2.834-1.24-3.719m.68-7.814,1.148,3.854-2.352,2.508-1.148-3.542m2.154,11.285-5.788.071s.553-4.236,2.9-4.236,2.89,4.166,2.89,4.166m-2.9-18.582,2.154,2.749-2.154,2.812-2.232-2.777m-.7,1.559,2.409,2.805-1.417,3.811L228.7,29.312m3.23,39.807s-.128,1.084-.128,4.428c-4.789.092-6.73,1.58-9.649,3.641s-4.059,7.339-4.059,7.339v3.415a19.875,19.875,0,0,0-3.351.553c-3.216.616-5.313,2.437-7.12,3.882s-3.344,4.945-3.705,6.426-.659,5.866-.659,5.866l-10.967,3.259H192.1l17.265-48.549,2.267,2.664L208,72.456l1.417-.035,6.255-17.831,2.933-.106L213.3,70.848l1.721.028.567-1.438,3.953-12.7,2.125,2.246-2.848,10.23,1.665-.425,4.5-14.714.588-2.239,3.018-.354s-5.172,17.661-6.2,20.559c2.813-2.324,5.072-2.324,5.894-2.678a14.018,14.018,0,0,1,3.627-.213m-3.748-38.489,2.586,2.763-1.417,3.726-2.373-2.72M229.4,23.234l-1.927,4.081h-2.9l1.5-3.684m.418,12.128,2.38,2.805-1.155,3.613-2.48-2.678M227.579,28.5l-1.785,3.811-3.046.425L224.49,28.7m.17,12.383,2.3,2.529-1.183,3.641-2.409-2.65m2.5-11.137-1.686,4.052-3.259.248L222.6,33.8" transform="translate(-192.1 -21.13)" fill="#088880" fill-rule="evenodd"/>
        <path id="Path_3" data-name="Path 3" d="M230.12,47.141l2.387,2.692-1.254,3.542-2.317-2.834m.22-26.092,2.31,2.48-1.219,3.648-2.359-2.352m3.563,11.37-1.417,4.017-3.542.34,1.523-3.946m-.694-10.492,2.352,2.465-1.4,3.8L226.1,33.164M229.6,44.8l-1.729,4.109-3.089.255,1.537-3.882m-.808-10.69,2.224,2.508-1.2,3.592-2.281-2.621m-.51,1.325,2.409,2.6-1.289,3.755L222.4,43.224m-.425,1.36,2.309,2.763-1.133,3.705L220.7,48.36m-.418,1.842,2.2,2.451-1.063,3.471-2.338-2.352m-.489,1.459,2.2,2.572-1.254,3.613-2.246-2.65" transform="translate(-199.445 -22.098)" fill="#088880" fill-rule="evenodd"/>
      </g>
    </g>
    <g id="_125-2" data-name="125" transform="translate(75 244.24)">
      <path id="Path_7" data-name="Path 7" d="M24.864,164.614l-7.543,18.319L15,185.855v.091h7.862v-.091l-2.346-2.926.8-1.886h7.4l.821,1.857-2.35,2.955v.091H37.687v-.091L35.341,182.9l-8.073-18.285Zm0,7.742,2.487,5.636H22.543Zm32.012-6.975.029,6.341h-.083c-2.673-2.9-4.9-4.36-6.722-4.36a5.2,5.2,0,0,0-4.343,2.134,8.874,8.874,0,0,0-1.616,5.545v.489a8.9,8.9,0,0,0,1.616,5.545A5.186,5.186,0,0,0,50.1,183.21a5.461,5.461,0,0,0,1.554-.191c1.086-.332,1.38-1.036,1.38-2.375v-2.677L49.6,175.013v-.091h8.716V184.1a23.419,23.419,0,0,1-3.842,1.434,15.892,15.892,0,0,1-4.372.729,13.527,13.527,0,0,1-5.719-1.218,10.735,10.735,0,0,1-4.372-3.751,10.074,10.074,0,0,1-1.732-5.819v-.361a9.965,9.965,0,0,1,1.732-5.794,11.8,11.8,0,0,1,10.092-5,18.733,18.733,0,0,1,6.78,1.065Zm5.487-.763h10.03c2.967,0,5.2.58,6.664,1.77a5.387,5.387,0,0,1,2.238,4.447v.216a5.708,5.708,0,0,1-1.355,3.655,6.778,6.778,0,0,1-3.854,2.226,9.247,9.247,0,0,1,4.29,4.111,17.8,17.8,0,0,0,2.64,3.631c.443.394.7.638.854.758.145.091.468.332,1.024.734v.091H83.077a11.722,11.722,0,0,1-5.346-1.036,9.171,9.171,0,0,1-3.523-3.564,23.009,23.009,0,0,0-2.458-3.564,2.333,2.333,0,0,0-1.7-.912h-.062V182.9l2.342,2.959v.091H62.355v-.091L64.7,182.9V167.665l-2.346-2.955v-.091Zm7.626,3.046v6.465h2.085c2.321,0,3.647-1.285,3.647-3.079v-.215c0-1.708-1.293-3.171-3.962-3.171H70Zm33.632-2.1a10.532,10.532,0,0,1,4.372,3.755,10,10,0,0,1,1.728,5.79v.365a10.084,10.084,0,0,1-1.728,5.823,11.831,11.831,0,0,1-10.1,4.973,13.531,13.531,0,0,1-5.719-1.223,10.735,10.735,0,0,1-4.372-3.751,10.074,10.074,0,0,1-1.732-5.819v-.361a9.97,9.97,0,0,1,1.728-5.79,11.794,11.794,0,0,1,10.092-5,13.357,13.357,0,0,1,5.719,1.243Zm-11.679,9.972a8.873,8.873,0,0,0,1.616,5.545,5.178,5.178,0,0,0,4.339,2.134,5.119,5.119,0,0,0,4.31-2.139,8.874,8.874,0,0,0,1.645-5.545v-.489a8.883,8.883,0,0,0-1.645-5.545,5.136,5.136,0,0,0-4.31-2.134,5.212,5.212,0,0,0-4.352,2.134,8.924,8.924,0,0,0-1.608,5.545v.489Zm21.3-10.912h9.947q4.271,0,6.163,1.463a4.419,4.419,0,0,1,1.877,3.626v.187a4.655,4.655,0,0,1-2.843,4.053,5.712,5.712,0,0,1,4.219,5.578v.207a5.444,5.444,0,0,1-2.288,4.476c-1.525,1.16-3.784,1.741-6.755,1.741h-10.32v-.091l2.346-2.955V167.669l-2.35-2.955v-.091Zm7.626,11.824v5.429c0,.7.332,1.036,1,1.036h.912c2.669,0,3.958-1.467,3.958-3.175v-.207c0-1.8-1.318-3.083-3.639-3.083h-2.23Zm0-8.778V173.4h1.853a3.409,3.409,0,0,0,2.495-.85,2.855,2.855,0,0,0,.734-1.919v-.182c0-1.463-.9-2.777-3.369-2.777h-1.7Zm25.331-3.046,8.069,18.285,2.346,2.955v.091H146.11v-.091l2.35-2.955-.829-1.865h-7.385l-.8,1.894,2.35,2.926v.091h-7.866v-.091l2.321-2.926,7.543-18.319h2.4ZM141.477,178h4.808l-2.487-5.636Zm41.258-13.283-2.35,2.955v18.285h-3.108l-12.5-16.943v13.9l2.342,2.955v.091h-7.924v-.091l2.35-2.955V167.673l-2.35-2.955v-.091h9.01l9.068,12.309v-9.267l-2.35-2.955v-.091h7.808v.091Zm24.618,0-7.924,8.248L209.5,185.855v.091H198.02v-.091l2.35-2.955-4.7-6.009-1.26,1.347V182.9l2.346,2.955v.091h-9.972v-.091l2.342-2.955V167.66l-2.346-2.955v-.091h9.972v.091l-2.346,2.955v6.25l5.985-6.25-2.346-2.955v-.091h9.3v.091Z" transform="translate(0 -139.365)" fill="#088880" fill-rule="evenodd"/>
    </g>
  </g>
</svg>
