<svg id="Group_614" data-name="Group 614" xmlns="http://www.w3.org/2000/svg" width="20.923" height="20.013" viewBox="0 0 20.923 20.013">
  <path id="Path_671" data-name="Path 671" d="M62,265.735H48.811a.682.682,0,0,1,0-1.364H62a.682.682,0,1,1,0,1.364Zm0,0" transform="translate(-41.761 -255.047)" fill="#8f9bab"/>
  <path id="Path_672" data-name="Path 672" d="M52.458,187.781a.677.677,0,0,1-.482-.2l-3.639-3.639a.683.683,0,0,1,0-.965l3.639-3.639a.682.682,0,1,1,.965.965l-3.157,3.157,3.157,3.157a.682.682,0,0,1-.483,1.164Zm0,0" transform="translate(-41.769 -173.454)" fill="#8f9bab"/>
  <path id="Path_673" data-name="Path 673" d="M-90.994,66.013A10.018,10.018,0,0,1-101,56.006,10.018,10.018,0,0,1-90.994,46a9.954,9.954,0,0,1,9.313,6.346.683.683,0,0,1-.385.885.684.684,0,0,1-.885-.386,8.6,8.6,0,0,0-8.043-5.481,8.652,8.652,0,0,0-8.642,8.642,8.652,8.652,0,0,0,8.642,8.642,8.6,8.6,0,0,0,8.043-5.48.683.683,0,0,1,.885-.386.683.683,0,0,1,.385.885,9.955,9.955,0,0,1-9.313,6.345Zm0,0" transform="translate(101 -46)" fill="#8f9bab"/>
</svg>
