<svg xmlns="http://www.w3.org/2000/svg" width="45.019" height="44.227" viewBox="0 0 45.019 44.227">
  <path id="nfc" d="M38.346,44.227,35.4,42.3a37.593,37.593,0,0,0,6.1-20.192A37.593,37.593,0,0,0,35.4,1.921L38.346,0a41.1,41.1,0,0,1,6.673,22.1v.035a41.1,41.1,0,0,1-6.673,22.1ZM35.259,22.136V22.09a31.394,31.394,0,0,0-5.312-17.1L27.025,6.944a27.879,27.879,0,0,1,4.717,15.169,27.88,27.88,0,0,1-4.717,15.169l2.922,1.958a31.393,31.393,0,0,0,5.312-17.1ZM23.5,31.742a21.968,21.968,0,0,0,2.092-9.663A21.72,21.72,0,0,0,21.634,10.05L18.75,12.062a18.216,18.216,0,0,1,3.321,10.085,18.1,18.1,0,0,1-.94,6.039L2.2,13.633l-.9,2.06A19.054,19.054,0,0,0,0,22.728a16.639,16.639,0,0,0,2.481,8.039l2.951-1.913a13.276,13.276,0,0,1-1.916-6.125,16.636,16.636,0,0,1,.353-3.377l18.7,14.376Zm0,0" transform="translate(0 0.001)" fill="#22a99f"/>
</svg>
