<svg xmlns="http://www.w3.org/2000/svg" width="20.923" height="18.307" viewBox="0 0 20.923 18.307">
  <g id="Group_613" data-name="Group 613" transform="translate(0)">
    <path id="Path_668" data-name="Path 668" d="M14.712,125.769a4.545,4.545,0,0,1-.328-1.7v-4.223a6.525,6.525,0,0,0-4.61-6.215,1.955,1.955,0,0,0-3.856,0,6.525,6.525,0,0,0-4.61,6.215v4.223a4.545,4.545,0,0,1-.328,1.7L.047,128.1a.654.654,0,0,0,.607.9h4.97a2.542,2.542,0,0,0,4.444,0h4.97a.654.654,0,0,0,.607-.9l-.934-2.334ZM1.62,127.692l.575-1.438a5.857,5.857,0,0,0,.421-2.185v-4.223a5.231,5.231,0,1,1,10.461,0v4.223a5.857,5.857,0,0,0,.421,2.185l.575,1.438Zm0,0" transform="translate(2.615 -112)" fill="#8f9bab"/>
    <path id="Path_669" data-name="Path 669" d="M-46.768,189.648A10.49,10.49,0,0,0-48,194.571a10.49,10.49,0,0,0,1.232,4.923l1.153-.616a9.06,9.06,0,0,1-1.077-4.307,9.06,9.06,0,0,1,1.077-4.307l-1.153-.616Zm0,0" transform="translate(48 -185.417)" fill="#8f9bab"/>
    <path id="Path_670" data-name="Path 670" d="M293.383,189.648l-1.153.616a9.151,9.151,0,0,1,0,8.615l1.153.616a10.454,10.454,0,0,0,0-9.846Zm0,0" transform="translate(-273.692 -185.417)" fill="#8f9bab"/>
  </g>
</svg>
