<svg xmlns="http://www.w3.org/2000/svg" width="15.441" height="26.943" viewBox="0 0 15.441 26.943">
  <g id="Group_681" data-name="Group 681" transform="translate(-165.55 -132.611)">
    <path id="Path_787" data-name="Path 787" d="M183.49,132.811H172.347a1.952,1.952,0,0,0-1.949,1.948v22.646a1.952,1.952,0,0,0,1.949,1.948H183.49a1.95,1.95,0,0,0,1.949-1.948V134.759a1.95,1.95,0,0,0-1.949-1.948Zm-12.206,3.538h13.271v16.812H171.284Zm1.063-2.652H183.49a1.065,1.065,0,0,1,1.065,1.062v.707H171.284v-.707a1.064,1.064,0,0,1,1.063-1.062Zm11.143,24.771H172.347a1.064,1.064,0,0,1-1.063-1.062v-3.362h13.271v3.362a1.065,1.065,0,0,1-1.065,1.062Zm0,0" transform="translate(-4.648)" fill="#8f9bab" stroke="#8f9bab" stroke-width="0.4"/>
  </g>
</svg>
