<svg id="Group_612" data-name="Group 612" xmlns="http://www.w3.org/2000/svg" width="26.542" height="26.542" viewBox="0 0 26.542 26.542">
  <path id="Path_666" data-name="Path 666" d="M-85.458,41.963A8.6,8.6,0,0,0-91.74,33.7,10.147,10.147,0,0,0-101.865,24,10.146,10.146,0,0,0-112,34.135a10.1,10.1,0,0,0,1.405,5.151l-1.368,4.946,4.946-1.368a10.1,10.1,0,0,0,4.712,1.395,8.6,8.6,0,0,0,8.268,6.283,8.549,8.549,0,0,0,4.366-1.193l4.177,1.155-1.155-4.177a8.549,8.549,0,0,0,1.193-4.366Zm-21.314-.78-2.961.819.819-2.961-.187-.292a8.551,8.551,0,0,1-1.345-4.614,8.589,8.589,0,0,1,8.58-8.58,8.589,8.589,0,0,1,8.58,8.58,8.589,8.589,0,0,1-8.58,8.58,8.552,8.552,0,0,1-4.614-1.345Zm19.046,7.092-2.2-.608-.293.191a7,7,0,0,1-3.821,1.13A7.042,7.042,0,0,1-100.7,44.2a10.154,10.154,0,0,0,8.9-8.9,7.043,7.043,0,0,1,4.785,6.66,7,7,0,0,1-1.13,3.821l-.191.293Zm0,0" transform="translate(112 -24)" fill="#8f9bab"/>
  <rect id="Rectangle_179" data-name="Rectangle 179" width="1.555" height="1.555" transform="translate(9.357 14.049)" fill="#8f9bab"/>
  <path id="Path_667" data-name="Path 667" d="M28.166,117.11a1.539,1.539,0,0,1-.506,1.148l-1.827,1.672v1.9h1.555v-1.213l1.321-1.209a3.11,3.11,0,1,0-5.209-2.3h1.555a1.555,1.555,0,1,1,3.11,0Zm0,0" transform="translate(-16.476 -109.334)" fill="#8f9bab"/>
</svg>
