<svg xmlns="http://www.w3.org/2000/svg" xmlns:xlink="http://www.w3.org/1999/xlink" width="24" height="27" viewBox="0 0 24 27">
  <defs>
    <clipPath id="clip-path">
      <rect id="Rectangle_178" data-name="Rectangle 178" width="24" height="27" transform="translate(0 0)" fill="#8f9bab"/>
    </clipPath>
  </defs>
  <g id="Group_611" data-name="Group 611" transform="translate(0 0)">
    <g id="Group_610" data-name="Group 610">
      <g id="Group_609" data-name="Group 609" transform="translate(0 0)" clip-path="url(#clip-path)">
        <path id="Path_663" data-name="Path 663" d="M-53.411,30.567v-.019c-.011-.233-.018-.479-.022-.752a2.566,2.566,0,0,0-2.416-2.513,9.955,9.955,0,0,1-6.776-2.856l-.016-.015a1.549,1.549,0,0,0-2.105,0l-.016.015a9.956,9.956,0,0,1-6.776,2.856A2.565,2.565,0,0,0-73.953,29.8c0,.272-.011.518-.022.752v.044c-.054,2.838-.121,6.37,1.06,9.576a12.19,12.19,0,0,0,2.924,4.555,15.3,15.3,0,0,0,5.723,3.385,1.772,1.772,0,0,0,.235.064,1.738,1.738,0,0,0,.341.034,1.737,1.737,0,0,0,.341-.034,1.777,1.777,0,0,0,.235-.064A15.308,15.308,0,0,0-57.4,44.721a12.207,12.207,0,0,0,2.924-4.556c1.186-3.215,1.119-6.754,1.065-9.6Zm-2.4,9.106c-1.246,3.379-3.79,5.7-7.777,7.094a.358.358,0,0,1-.045.012.319.319,0,0,1-.125,0,.353.353,0,0,1-.045-.012c-3.991-1.392-6.537-3.711-7.782-7.09-1.089-2.955-1.027-6.2-.973-9.058V30.6c.011-.246.018-.5.023-.786A1.14,1.14,0,0,1-71.458,28.7a12.463,12.463,0,0,0,4.23-.93,11.067,11.067,0,0,0,3.447-2.316.131.131,0,0,1,.176,0,11.071,11.071,0,0,0,3.447,2.316,12.463,12.463,0,0,0,4.23.93,1.14,1.14,0,0,1,1.074,1.116c0,.284.012.542.023.786.054,2.864.115,6.108-.978,9.07Zm0,0" transform="translate(75.656 -22.241)" fill="#8f9bab"/>
      </g>
    </g>
    <path id="Path_664" data-name="Path 664" d="M22.431,152.41a6.033,6.033,0,1,0,6.033,6.033,6.039,6.039,0,0,0-6.033-6.033Zm0,10.645a4.612,4.612,0,1,1,4.612-4.612,4.617,4.617,0,0,1-4.612,4.612Zm0,0" transform="translate(-10.467 -144.581)" fill="#8f9bab"/>
    <path id="Path_665" data-name="Path 665" d="M84.448,236.2l-2.8,2.8-.761-.761a.71.71,0,1,0-1,1l1.263,1.263a.71.71,0,0,0,1,0l3.3-3.3a.71.71,0,0,0-1-1Zm0,0" transform="translate(-70.751 -224.21)" fill="#8f9bab"/>
  </g>
</svg>
