<svg xmlns="http://www.w3.org/2000/svg" width="49.629" height="49.292" viewBox="0 0 49.629 49.292">
  <g id="time-is-money" transform="translate(4.754 -11.873)">
    <path id="Path_695" data-name="Path 695" d="M207.054,168.9c0,1.043,2.957,2.5,7.773,2.5s7.773-1.454,7.773-2.5-2.957-2.5-7.773-2.5S207.054,167.856,207.054,168.9Zm7.94-1.139.073.141a8.331,8.331,0,0,1,1.221.113c.1.018.149.06.107.093l-.3.239a.4.4,0,0,1-.259.027,5.49,5.49,0,0,0-.969-.063c-.336.008-.887.056-.823.18s.266.163,1.145.23c.751.057,1.885.144,2.1.573.14.27-.327.49-1.2.571l.076.148c.019.038-.052.07-.16.073l-.779.019c-.108,0-.211-.026-.23-.063l-.08-.155a6.755,6.755,0,0,1-1.446-.22c-.088-.025-.107-.068-.042-.1l.47-.2a.362.362,0,0,1,.13-.022.528.528,0,0,1,.147.018,4.35,4.35,0,0,0,1.155.124c.321-.008.848-.052.789-.167s-.23-.138-1.063-.2c-.775-.059-1.945-.149-2.178-.6-.133-.257.263-.47,1.04-.565l-.084-.163c-.019-.038.052-.07.16-.073l.78-.019C214.872,167.693,214.975,167.721,214.994,167.759Z" transform="translate(-193.813 -136.182)" fill="#22a99f"/>
    <path id="Path_696" data-name="Path 696" d="M207.054,206.938v2.6c.126,1.037,3.056,2.428,7.767,2.428,4.816,0,7.773-1.454,7.773-2.5l0-2.526c-1.59,1.178-4.747,1.8-7.771,1.8S208.643,208.117,207.054,206.938Z" transform="translate(-193.813 -172.479)" fill="#22a99f"/>
    <path id="Path_697" data-name="Path 697" d="M207,288.6v2.122c0,.009,0,.017,0,.026s0,.029,0,.044v.334c0,1.043,2.957,2.5,7.773,2.5s7.774-1.454,7.774-2.5l0-2.533c-1.588,1.18-4.75,1.8-7.777,1.8S208.593,289.776,207,288.6Z" transform="translate(-193.761 -245.595)" fill="#22a99f"/>
    <path id="Path_698" data-name="Path 698" d="M207.054,247.754v2.594c.126,1.037,3.056,2.428,7.767,2.428,4.816,0,7.773-1.454,7.773-2.5l0-2.532c-1.588,1.18-4.75,1.8-7.777,1.8S208.645,248.93,207.054,247.754Z" transform="translate(-193.813 -209.02)" fill="#22a99f"/>
    <g id="Group_652" data-name="Group 652" transform="translate(-531.598 -331.877)">
      <g id="Group_651" data-name="Group 651" transform="translate(528.844 347.75)">
        <g id="Group_650" data-name="Group 650" transform="translate(0 0)">
          <path id="Path_711" data-name="Path 711" d="M542.452,371.209v-3.947h-2.268v-3.4c0-9.38,7.631-13.842,17.01-13.842a17.076,17.076,0,0,1,14.735,8.505l1.963-1.136a19.35,19.35,0,0,0-16.7-9.637h-6.8c-10.63,0-19.279,5.479-19.279,16.11v3.4h-2.268v3.947l6.809,5.443Zm-11.34-1.09v-.589h2.268v-5.67c0-8.484,6.244-12.369,14.378-13.638-5.87,3.308-9.842,6.434-9.842,13.638v5.67h2.268v.589l-4.532,3.629Z" transform="translate(-530.844 -351.75)" fill="#4ab8b0"/>
          <path id="Path_712" data-name="Path 712" d="M645.223,814.9l-6.8,5.443v3.947h2.268v3.4c0,9.38-7.631,13.842-17.01,13.842a17.076,17.076,0,0,1-14.735-8.505l-1.964,1.136a19.35,19.35,0,0,0,16.7,9.637h6.8c10.63,0,19.279-5.479,19.279-16.11v-3.4h2.268v-3.947Zm4.541,7.122H647.5v5.67c0,8.484-6.244,12.369-14.378,13.638,5.87-3.308,9.842-6.434,9.842-13.638v-5.67h-2.268v-.589l4.532-3.629,4.54,3.629Z" transform="translate(-604.403 -798.506)" fill="#4ab8b0"/>
        </g>
      </g>
    </g>
  </g>
</svg>
