<svg xmlns="http://www.w3.org/2000/svg" width="21.32" height="24.562" viewBox="0 0 21.32 24.562">
  <g id="uzcard-logo-1" transform="translate(-577.955 528.415)">
    <path id="Path_217" data-name="Path 217" d="M599.274-515.3q0,5.8-2.65,8.63t-8.176,2.817q-5.157,0-7.825-2.817t-2.668-8.5v-12.707a.541.541,0,0,1,.54-.54h6.234a.542.542,0,0,1,.54.54v12.983a6.223,6.223,0,0,0,.868,3.576,2.851,2.851,0,0,0,2.49,1.253,2.876,2.876,0,0,0,2.484-1.179,5.909,5.909,0,0,0,.851-3.484v-2.431h7.314Z" transform="translate(0 0)" fill="#a2b1c4" fill-rule="evenodd"/>
    <path id="Path_218" data-name="Path 218" d="M713.736-518.575h-6.748v-9.274a.567.567,0,0,1,.565-.565h1.009a5.737,5.737,0,0,0,5.737,5.733h0v4.107Z" transform="translate(-115.027 0)" fill="#a2b1c4" fill-rule="evenodd"/>
    <path id="Path_219" data-name="Path 219" d="M734.747-528.415h3.735a.567.567,0,0,1,.565.565v3.74a4.3,4.3,0,0,1-4.3-4.3Z" transform="translate(-139.773 0)" fill="#a2b1c4" fill-rule="evenodd"/>
  </g>
</svg>
