<svg xmlns="http://www.w3.org/2000/svg" width="39.699" height="47.321" viewBox="0 0 39.699 47.321">
  <g id="_125" data-name="125" transform="translate(-0.469 -5.742)" opacity="0.5">
    <g id="Group_1" data-name="Group 1" transform="translate(0.469 5.742)">
      <path id="Path_1" data-name="Path 1" d="M232.08,54.017l-1.382.116.653-2.005L232.788,52m2.039-.791-.8-2.113,1.506.089.87,2.025m-3.331.046-1.513.046.832-2.121,1.444-.085m-5.848,4.308-.739,2.121-1.506.231.688-2.113m2.885,2.588-.5,1.8L227.7,56.833l.505-2.005m17.259,4.4,8.413,26.4s-3.679-1.118-5.487-1.728a10.446,10.446,0,0,0-1.977-6.595c-1.743-2.314-5.164-2.623-5.164-2.623a7.967,7.967,0,0,0-1.571-5.315,7.137,7.137,0,0,0-5.164-2.584V64.322a10.233,10.233,0,0,1,4.641,1.736l-2.991-11.235,1.513.282,2.6,9.322.67-.054-1.526-5.43,1.2-1.273,2.2,7.455.811.1L241,56.482l1.53.239,2.915,9.538.8-.066-1.98-5.731,1.193-1.234Z" transform="translate(-214.175 -38.313)" fill="#8f9bab" fill-rule="evenodd"/>
      <path id="Path_9" data-name="Path 9" d="M232.08,54.017l-1.382.116.653-2.005L232.788,52m2.039-.791-.8-2.113,1.506.089.87,2.025m-3.331.046-1.513.046.832-2.121,1.444-.085m-5.848,4.308-.739,2.121-1.506.231.688-2.113m2.885,2.588-.5,1.8L227.7,56.833l.505-2.005m17.259,4.4,8.413,26.4s-3.679-1.118-5.487-1.728a10.446,10.446,0,0,0-1.977-6.595c-1.743-2.314-5.164-2.623-5.164-2.623a7.967,7.967,0,0,0-1.571-5.315,7.137,7.137,0,0,0-5.164-2.584V64.322a10.233,10.233,0,0,1,4.641,1.736l-2.991-11.235,1.513.282,2.6,9.322.67-.054-1.526-5.43,1.2-1.273,2.2,7.455.811.1L241,56.482l1.53.239,2.915,9.538.8-.066-1.98-5.731,1.193-1.234Z" transform="translate(-214.175 -38.313)" fill="#8f9bab" fill-rule="evenodd"/>
      <path id="Path_2" data-name="Path 2" d="M222.451,39.226l.608,1.928-1.179,1.361-.567-1.936m.285-4.215.7,1.859L221.1,39.781l-.646-1.967,1.135-1.489m-.818-2.734.543,1.882-1.066,1.446-.585-1.94m.23-4.289.595,2.083-1.121,1.234-.584-1.89m.853,4.389.646,1.994-1.571-.116-.729-2.056m1.111-8.4.543,1.951-1.086,1.408-.626-1.986m.863,4.443.712,1.99-1.637-.154-.8-2.083m-.6,30.988a5.844,5.844,0,0,1,4.033,1.786c-1.289,1.581-3.668,1.755-4.689,1.9a33.04,33.04,0,0,1-6.47.212c-2.957-.193-4.854-.91-5.937-2.121.619-1.485,3.5-1.793,4.518-1.824a8.15,8.15,0,0,1,2.943.578,9.917,9.917,0,0,1-.481-2.669,18.6,18.6,0,0,1,.182-3.108,9.738,9.738,0,0,1,1.375-2.653,10.1,10.1,0,0,1,1.289,2.187,7.839,7.839,0,0,1,.413,3.008A9.238,9.238,0,0,1,213,65.034a20.382,20.382,0,0,1,3.472-.548m1.722-39.311.584,1.955-1.086,1.408-.626-1.99m.86,4.42.688,1.967-1.547-.131-.791-2.044m1.42,6.88.585,1.982L217.173,41l-.664-1.9m.825-16.757.591,1.928-1.117,1.473-.571-1.909m.829,4.265.712,2.036-1.64-.262-.8-1.944m1.478,6.892.578,1.89-1.066,1.342-.609-1.851m.512-10.822.595,2.005-1.485-.27-.811-1.94m1.441,6.819.629,1.936-1.135,1.427-.664-1.863m.488-11,.722,2.005-1.485-.062-.884-2.094m1.482,6.884.55,1.859-1.1,1.5-.612-1.9m.433,4.215.859,2.144-1.5-.1-.8-2.121m1.313-8.427.609,1.9-1.176,1.543-.6-2.025m.33-4.254.557,2.1-1.141,1.365-.557-1.928m1.045,6.144-2.809.039s.268-2.306,1.41-2.306,1.4,2.268,1.4,2.268M211.937,21.13l1.045,1.5-1.045,1.531-1.083-1.512m-.34.848,1.169,1.527L211,27.1l-1.135-1.512m1.568,21.671s-.062.59-.062,2.41c-2.324.05-3.266.86-4.683,1.982s-1.97,4-1.97,4V57.5a8.671,8.671,0,0,0-1.626.3,7.48,7.48,0,0,0-3.455,2.113,8.3,8.3,0,0,0-1.8,3.5c-.172.81-.32,3.193-.32,3.193l-5.322,1.774H192.1l8.378-26.43,1.1,1.45-1.76,5.669.688-.019,3.036-9.707,1.423-.058L202.387,48.2l.835.015.275-.783,1.918-6.915,1.031,1.223-1.382,5.569.808-.231,2.183-8.01.285-1.219,1.465-.193s-2.51,9.615-3.008,11.192a6.184,6.184,0,0,1,4.621-1.574M209.6,26.317l1.255,1.5-.688,2.029-1.152-1.481m1.186-6.094-.935,2.221h-1.41l.729-2.005m.2,6.6,1.155,1.527-.56,1.967-1.2-1.458m1.138-5.986-.866,2.075-1.478.231.846-2.2m.082,6.741,1.114,1.377-.574,1.982-1.169-1.442m1.214-6.063-.818,2.206-1.582.135.815-2.16" transform="translate(-192.1 -21.13)" fill="#8f9bab" fill-rule="evenodd"/>
      <path id="Path_3" data-name="Path 3" d="M223.516,36.8l1.159,1.466-.609,1.928-1.124-1.543m.107-14.2,1.121,1.35-.591,1.986-1.145-1.28m1.729,6.19-.688,2.187-1.719.185.739-2.148m-.337-5.712L223.3,28.55l-.681,2.071-1.052-1.427m1.7,6.333-.839,2.237-1.5.139.746-2.113m-.392-5.82,1.08,1.365-.584,1.955-1.107-1.427m-.248.721L221.591,34l-.626,2.044-1.2-1.373m-.206.74,1.121,1.5-.55,2.017-1.186-1.466m-.2,1L219.81,39.8l-.516,1.89-1.135-1.28m-.237.794,1.066,1.4-.608,1.967-1.09-1.442" transform="translate(-208.63 -23.17)" fill="#8f9bab" fill-rule="evenodd"/>
    </g>
  </g>
</svg>
